<svg xmlns="http://www.w3.org/2000/svg" xmlns:xlink="http://www.w3.org/1999/xlink" aria-hidden="true" role="img" class="iconify iconify--logos" width="31.88" height="32" preserveAspectRatio="xMidYMid meet" viewBox="0 0 256 257"><defs><linearGradient id="IconifyId1813088fe1fbc01fb466" x1="-.828%" x2="57.636%" y1="7.652%" y2="78.411%"><stop offset="0%" stop-color="#41D1FF"></stop><stop offset="100%" stop-color="#BD34FE"></stop></linearGradient><linearGradient id="IconifyId1813088fe1fbc01fb467" x1="43.376%" x2="50.316%" y1="2.242%" y2="89.03%"><stop offset="0%" stop-color="#FFEA83"></stop><stop offset="8.333%" stop-color="#FFDD35"></stop><stop offset="100%" stop-color="#FFA800"></stop></linearGradient></defs><path fill="url(#IconifyId1813088fe1fbc01fb466)" d="M255.153 37.938L134.897 252.976c-2.483 4.44-8.862 4.466-11.382.048L.875 37.958c-2.746-4.814 1.371-10.646 6.827-9.67l120.385 21.517a6.537 6.537 0 0 0 2.322-.004l117.867-21.483c5.438-.991 9.666 4.796 6.877 9.62Z"></path><path fill="url(#IconifyId1813088fe1fbc01fb467)" d="M185.432.063L96.44 17.501a3.268 3.268 0 0 0-2.634 3.014l-5.53 94.305a3.268 3.268 0 0 0 3.997 3.378l24.777-5.718c2.318-.535 4.413 1.507 3.936 3.838l-7.81 33.489c-.495 2.213 1.77 4.005 3.996 3.378l15.304-4.649c2.32-.535 4.414 1.507 3.937 3.838l-11.005 47.74c-.516 2.236 1.765 4.023 3.99 3.397l26.647-7.738c2.32-.536 4.412 1.505 3.936 3.836l-15.703 66.892a3.268 3.268 0 0 0 3.99 3.397l62.776-18.26c4.236-1.231 6.002-5.909 3.934-9.376l-82.968-137.77a3.268 3.268 0 0 1 3.989-3.397l24.894 7.238c2.32.536 4.413-1.505 3.936-3.836l-12.048-51.234c-.515-2.235 1.766-4.022 3.99-3.397l27.026 7.852c4.235 1.231 6.002 5.908 3.933 9.375Z"></path></svg>

